<svg width="91" height="19" xmlns="http://www.w3.org/2000/svg"><title>Brand Assets / Wiraya Logo</title><path d="M0 0h3.935l3.262 13.762L10.537 0h2.952l3.366 13.787L20.09 0H24l-5.178 19h-3.47L11.988 5.52 8.647 19H5.074L0 0m26 0h4v19h-4zm6 0h5.402c2.774 0 4.366.462 5.33 1.206C44.204 2.336 45 4.262 45 6.367c0 1.387-.362 2.619-.966 3.543-.77 1.207-1.784 1.746-2.942 2.054L44.531 19h-3.762l-4.259-8.833h.7c1.181 0 2.46-.077 3.207-.693.7-.616 1.134-1.618 1.134-2.773 0-1.156-.53-2.208-1.326-2.747-.652-.437-1.52-.59-2.533-.59h-2.098V19H32V0m21.925 4.519l-2.61 7.702h5.296L53.925 4.52zM49.028 19H45l7.458-19h3.257L63 19h-4.053l-1.342-3.723h-7.26L49.028 19zm16.628-6.804L60 0h4.011l3.49 8.627L71.012 0H75l-5.632 12.196V19h-3.712v-6.804m16.269-7.677l-2.61 7.702h5.296L81.925 4.52zM77.028 19H73l7.458-19h3.258L91 19h-4.053l-1.342-3.723h-7.26L77.028 19z" fill="#FFF" fill-rule="evenodd"/></svg>